<?xml version="1.0" encoding="utf-8"?>
<!-- Generator: Adobe Illustrator 18.1.1, SVG Export Plug-In . SVG Version: 6.00 Build 0)  -->
<svg version="1.1" id="Calque_1" xmlns="http://www.w3.org/2000/svg" xmlns:xlink="http://www.w3.org/1999/xlink" x="0px" y="0px"
	 viewBox="405.4 296.2 149.3 149.3" enable-background="new 405.4 296.2 149.3 149.3" xml:space="preserve">
<path fill="#065471" d="M546.2,297.6L480,363.8l-66.2-66.2c-1.9-1.9-5.1-1.9-7,0s-1.9,5.1,0,7l69.7,69.7c1,1,2.2,1.5,3.5,1.5
	s2.5-0.5,3.5-1.5l69.7-69.7c1.9-1.9,1.9-5.1,0-7C551.3,295.7,548.1,295.7,546.2,297.6z"/>
<path fill="#0A91AB" d="M546.2,367.3L480,433.5l-66.2-66.2c-1.9-1.9-5.1-1.9-7,0s-1.9,5.1,0,7l69.7,69.7c1,1,2.2,1.5,3.5,1.5
	s2.5-0.5,3.5-1.5l69.7-69.7c1.9-1.9,1.9-5.1,0-7S548.1,365.4,546.2,367.3z"/>
</svg>
