<?xml version="1.0" encoding="utf-8"?>
<!-- Generator: Adobe Illustrator 18.1.1, SVG Export Plug-In . SVG Version: 6.00 Build 0)  -->
<svg version="1.1" id="Calque_1" xmlns="http://www.w3.org/2000/svg" xmlns:xlink="http://www.w3.org/1999/xlink" x="0px" y="0px"
	 viewBox="478.3 -16.5 55.4 45" enable-background="new 478.3 -16.5 55.4 45" xml:space="preserve">
<path id="twitter-icon" fill="#FFFFFF" d="M533.7-11.2c-2,0.9-4.2,1.5-6.5,1.8c2.3-1.4,4.1-3.6,5-6.3c-2.2,1.3-4.6,2.2-7.2,2.8
	c-2.1-2.2-5-3.6-8.3-3.6c-7.3,0-12.7,6.8-11.1,13.9c-9.4-0.5-17.8-5-23.4-11.9c-3,5.1-1.5,11.8,3.5,15.2c-1.9-0.1-3.6-0.6-5.1-1.4
	c-0.1,5.3,3.6,10.2,9.1,11.3c-1.6,0.4-3.4,0.5-5.1,0.2c1.4,4.5,5.6,7.8,10.6,7.9c-4.8,3.7-10.8,5.4-16.8,4.7c5,3.2,11,5.1,17.4,5.1
	c21.1,0,33-17.8,32.3-33.8C530.2-6.9,532.2-8.9,533.7-11.2z"/>
</svg>
