<?xml version="1.0" encoding="utf-8"?>
<!-- Generator: Adobe Illustrator 18.1.1, SVG Export Plug-In . SVG Version: 6.00 Build 0)  -->
<svg version="1.1" id="Calque_1" xmlns="http://www.w3.org/2000/svg" xmlns:xlink="http://www.w3.org/1999/xlink" x="0px" y="0px"
	 viewBox="486.5 -16.5 39 45" enable-background="new 486.5 -16.5 39 45" xml:space="preserve">
<path id="youtube-icon" fill="#FFFFFF" d="M492.2-16.5h2.7l1.8,6.9l1.7-6.9h2.7l-3.1,10.3v7h-2.7v-7L492.2-16.5z M501.1-2.3
	c0,2.3,1.2,3.4,3.5,3.4c1.9,0,3.4-1.3,3.4-3.4v-6.3c0-2-1.5-3.4-3.4-3.4c-2.1,0-3.5,1.4-3.5,3.4V-2.3z M503.5-8.4
	c0-0.7,0.3-1.2,1-1.2c0.7,0,1,0.5,1,1.2v6c0,0.7-0.4,1.2-1,1.2c-0.7,0-1-0.5-1-1.2V-8.4z M514.4-11.9v9.7c-0.3,0.4-0.9,1-1.4,1
	c-0.5,0-0.6-0.3-0.6-0.9v-9.8H510v10.7c0,1.3,0.4,2.3,1.7,2.3c0.7,0,1.7-0.4,2.8-1.6v1.4h2.4v-12.8H514.4z M510.9,14.3
	c0.2,0.2,0.2,0.5,0.2,0.9v6.3c0,0.4-0.1,0.7-0.2,0.8c-0.3,0.3-0.8,0.3-1.2,0.1c-0.2-0.1-0.4-0.2-0.5-0.4v-7.6
	c0.2-0.2,0.3-0.3,0.5-0.4C510.2,13.9,510.7,14,510.9,14.3z M518.6,14c-0.8,0-1,0.6-1,1.4v1.2h2v-1.2C519.6,14.6,519.4,14,518.6,14z
	 M525.5,23c0,3-2.4,5.5-5.5,5.5H492c-3,0-5.5-2.4-5.5-5.5V9.2c0-3,2.4-5.5,5.5-5.5H520c3,0,5.5,2.4,5.5,5.5L525.5,23L525.5,23z
	 M495.7,10.3h2.6V7.9h-7.8v2.4h2.6v14.1h2.6V10.3L495.7,10.3z M504.8,12.2h-2.3v9.3c-0.3,0.3-0.9,0.9-1.3,0.9
	c-0.5,0-0.6-0.3-0.6-0.8v-9.4h-2.3v10.2c0,2.5,1.7,2.5,2.9,1.8c0.5-0.3,0.9-0.6,1.3-1.1v1.3h2.3V12.2z M513.5,15.1
	c0-1.7-0.6-3.1-2.2-3.1c-0.8,0-1.5,0.5-2,1.1V7.9H507v16.5h2.3v-0.9c0.6,0.8,1.3,1.1,2.2,1.1c1.5,0,2.1-1.2,2.1-2.7V15.1z
	 M521.9,15.5c0-2.2-1.1-3.6-3.2-3.6c-2,0-3.4,1.5-3.4,3.6V21c0,2.2,1.1,3.8,3.3,3.8c2.4,0,3.4-1.4,3.4-3.8v-0.9h-2.3v0.8
	c0,1.1-0.1,1.7-1,1.7c-0.9,0-1-0.8-1-1.7v-2.3h4.3L521.9,15.5L521.9,15.5z"/>
</svg>
