<?xml version="1.0" encoding="utf-8"?>
<!-- Generator: Adobe Illustrator 18.1.1, SVG Export Plug-In . SVG Version: 6.00 Build 0)  -->
<svg version="1.1" id="Calque_1" xmlns="http://www.w3.org/2000/svg" xmlns:xlink="http://www.w3.org/1999/xlink" x="0px" y="0px"
	 viewBox="483.1 -16.5 45.9 45" enable-background="new 483.1 -16.5 45.9 45" xml:space="preserve">
<g id="google-plus-icon">
	<path fill="#FFFFFF" d="M528.9-6.8h-6.1v6.1h-3v-6.1h-6.1v-3h6.1v-6.1h3v6.1h6.1V-6.8z M511.7,18.4c0,4.6-4.2,10.1-14.6,10.1
		c-7.7,0-14-3.3-14-8.9c0-4.3,2.7-9.9,15.4-9.9c-1.9-1.5-2.3-3.7-1.2-6c-7.4,0-11.2-4.4-11.2-9.9c0-5.4,4-10.4,12.3-10.4
		c2.1,0,13.2,0,13.2,0l-2.9,3.1h-3.5c2.4,1.4,3.7,4.3,3.7,7.5c0,2.9-1.6,5.3-3.9,7c-4.1,3.1-3,4.9,1.2,8
		C510.4,12.2,511.7,14.7,511.7,18.4z M503.5-5.8c-0.6-4.7-3.7-8.5-7.2-8.6c-3.6-0.1-5.9,3.5-5.3,8.1c0.6,4.7,4,7.9,7.5,8
		C502.1,1.9,504.1-1.1,503.5-5.8z M507.2,18.9c0-3.8-3.5-7.5-9.4-7.5c-5.3-0.1-9.8,3.3-9.8,7.3c0,4,3.8,7.4,9.1,7.4
		C503.9,26,507.2,22.9,507.2,18.9z"/>
</g>
</svg>
