<?xml version="1.0" encoding="utf-8"?>
<!-- Generator: Adobe Illustrator 19.1.0, SVG Export Plug-In . SVG Version: 6.00 Build 0)  -->
<svg version="1.1" id="Calque_1" xmlns="http://www.w3.org/2000/svg" xmlns:xlink="http://www.w3.org/1999/xlink" x="0px" y="0px"
	 viewBox="36.9 214.9 356.3 412" style="enable-background:new 36.9 214.9 356.3 412;" xml:space="preserve">
<style type="text/css">
	.st0{fill:#FFFFFF;}
</style>
<path id="microphone-5-icon" class="st0" d="M238.9,241.4c35.3-35.3,92.5-35.3,127.8,0s35.3,92.5,0,127.8
	c-25.1,25.1-53.5,25.6-59.6,26.6l-94.8-94.8C213.5,293.6,214.2,266.1,238.9,241.4z M199.1,330c-0.2,0.2-138.2,171.2-138.2,171.2
	l45.2,45.2c0,0,171.6-137.4,171.8-137.6L199.1,330z M282.8,610.5c-23.9-36.7-47.5-61.2-84.9-61.2c-39.3,0-57.3,24.5-82.7,40.4
	c-18,11.3-34.9,5.5-43.1-4.6c-3-3.6-11.5-16.7,3-31.7l-21.5-20.8C30,557,34.2,586,48.8,604.1c16.7,20.7,50.4,31.1,82.3,11.1
	c27.2-17.1,39.3-35.9,66.8-35.9c17.8,0,34,8,59.8,47.6L282.8,610.5z"/>
</svg>
